<?xml version="1.0" encoding="UTF-8" standalone="no"?>
<svg width="44px" height="44px" viewBox="0 0 44 44" version="1.1" xmlns="http://www.w3.org/2000/svg" xmlns:xlink="http://www.w3.org/1999/xlink" xmlns:sketch="http://www.bohemiancoding.com/sketch/ns">
    <!-- Generator: Sketch 3.2.2 (9983) - http://www.bohemiancoding.com/sketch -->
    <title>代码2</title>
    <desc>Created with Sketch.</desc>
    <defs></defs>
    <g id="Page-1" stroke="none" stroke-width="1" fill="none" fill-rule="evenodd" sketch:type="MSPage">
        <g id="icon" sketch:type="MSArtboardGroup" transform="translate(-98.000000, -50.000000)">
            <g id="代码2" sketch:type="MSLayerGroup" transform="translate(99.000000, 51.000000)">
                <rect id="Rectangle-151" stroke="#54D09F" stroke-width="2" fill="#FFFFFF" sketch:type="MSShapeGroup" x="0" y="0" width="42" height="42" rx="1"></rect>
                <rect id="Rectangle-152" fill="#54D09F" sketch:type="MSShapeGroup" x="16" y="16" width="4" height="2"></rect>
                <circle id="Oval-39" fill="#54D09F" sketch:type="MSShapeGroup" cx="20" cy="17" r="1"></circle>
                <circle id="Oval-40" fill="#54D09F" sketch:type="MSShapeGroup" cx="16" cy="17" r="1"></circle>
                <g id="Imported-Layers-2" transform="translate(8.000000, 10.000000)" sketch:type="MSShapeGroup">
                    <path d="M1,1 L3,4 M3,4 L1,7" id="Stroke-1" stroke="#54D09F" stroke-width="2"></path>
                    <path d="M3,3 C3.552,3 4,3.448 4,4 C4,4.552 3.552,5 3,5 C2.448,5 2,4.552 2,4 C2,3.448 2.448,3 3,3" id="Fill-2" fill="#54D09F"></path>
                    <path d="M1,0 C1.552,0 2,0.448 2,1 C2,1.552 1.552,2 1,2 C0.448,2 0,1.552 0,1 C0,0.448 0.448,0 1,0" id="Fill-3" fill="#54D09F"></path>
                    <path d="M1,6 C1.552,6 2,6.448 2,7 C2,7.552 1.552,8 1,8 C0.448,8 0,7.552 0,7 C0,6.448 0.448,6 1,6" id="Fill-4" fill="#54D09F"></path>
                </g>
            </g>
        </g>
    </g>
</svg>