<?xml version="1.0" encoding="UTF-8" standalone="no"?>
<svg width="34px" height="44px" viewBox="0 0 34 44" version="1.1" xmlns="http://www.w3.org/2000/svg" xmlns:xlink="http://www.w3.org/1999/xlink" xmlns:sketch="http://www.bohemiancoding.com/sketch/ns">
    <!-- Generator: Sketch 3.0.3 (7892) - http://www.bohemiancoding.com/sketch -->
    <title>Slice 1</title>
    <desc>Created with Sketch.</desc>
    <defs></defs>
    <g id="Page-1" stroke="none" stroke-width="1" fill="none" fill-rule="evenodd" sketch:type="MSPage">
        <path d="M28,14 L33,14 L34,14 L34,15 L34,43 L34,44 L33,44 L1,44 L0,44 L0,43 L0,15 L0,14 L1,14 L6,14 L6,11 C6,4.92486775 10.9248678,0 17,0 C23.0751322,0 28,4.92486775 28,11 L28,14 L28,14 L28,14 Z M26,14 L8,14 L8,11 C8,6.02943725 12.0294372,2 17,2 C21.9705628,2 26,6.02943725 26,11 L26,14 L26,14 L26,14 Z M2,16 L32,16 L32,42 L2,42 L2,16 L2,16 Z" id="Rectangle-62" fill="#54D09F" sketch:type="MSShapeGroup"></path>
    </g>
</svg>